<?xml version="1.0" encoding="UTF-8"?>
<svg id="Layer_1" data-name="Layer 1" xmlns="http://www.w3.org/2000/svg" viewBox="0 0 380.53 420.96">
  <defs>
    <style>
      .cls-1 {
        fill: #fff;
      }

      .cls-2 {
        fill: #31aee2;
      }
    </style>
  </defs>
  <path class="cls-2" d="M110.98,100.8v168.82c0,.84-.68,1.53-1.53,1.53h-25.13c-.84,0-1.53-.68-1.53-1.53v-33.32c-.54-.03-.92-.06-1.31-.06-10.56,0-21.12,0-31.67-.02-.86,0-1.25,.29-1.59,1.05-4.45,9.86-8.93,19.7-13.4,29.56-.28,.63-.51,1.13-1.42,1.12-10.88-.04-21.76-.03-32.63-.03-.2,0-.39-.02-.77-.05,.16-.42,.27-.78,.42-1.11,24.76-55.27,49.52-110.53,74.25-165.81,.47-1.04,1.02-1.33,2.11-1.34,4.29-.04,8.58-.27,12.87-.31,6.6-.06,13.2-.02,19.8-.02h0c.84,0,1.53,.68,1.53,1.53h0Zm-28.33,65.07c-.53-4.56,1.1-7.59-1.59-4.73-5.69,13.07-12.95,30.21-18.65,43.32-.44,1.01,.3,2.14,1.4,2.14h17.32c.84,0,1.53-.68,1.53-1.53v-39.2h-.01Z"/>
  <g>
    <path class="cls-2" d="M288.34,270.22h-25.59c-.95-.42-1.25-1.13-1.25-2.17,.02-55.11,.02-110.23,0-165.34,0-.94,.22-1.67,1.01-2.2h23.92c.37,.07,.75,.18,1.12,.19,2.59,.08,5.17,.17,7.76,.18,1.34,0,2.07,.6,2.61,1.8,19.52,43.27,39.07,86.53,58.61,129.79,.11,.23,.17,.49,.29,.86h-15.88c.32,.38,.51,.62,.71,.84,7.73,8.32,15.45,16.65,23.19,24.96,2.37,2.54,4.81,5.02,7.21,7.53v.24c-10.96,.01-21.92,.02-32.87,.05-.75,0-1.31-.1-1.81-.82-1.5-2.12-2.88-4.39-4.74-6.17-9.8-9.44-21.1-16.74-33.64-22.1-2.52-1.08-5.33-1.49-8.02-2.14-1.03-.25-1.43,.19-1.42,1.33,.05,10.29,.02,20.59,.05,30.88,0,1.06-.25,1.84-1.25,2.29h0Zm1.86-111.08c-.9,.64-1.05,1.04-1.02,2.39,.05,1.91,.09,3.82,.12,5.73,.07,4.45,.15,8.9,.2,13.35,.09,7.92,.16,15.84,.24,23.75,.02,1.59,.47,2.06,2.06,2.06h16.01c1.94,0,2.53-.87,1.77-2.63-6.21-14.36-12.41-28.72-18.63-43.07-.23-.53-.49-1.05-.75-1.59h0Z"/>
    <path class="cls-2" d="M262.51,100.52c-.79,.53-1.01,1.26-1.01,2.2,.02,55.11,.02,110.23,0,165.34,0,1.03,.3,1.75,1.25,2.17h-1.44V100.52c.4,0,.8,0,1.2,0Z"/>
  </g>
  <path class="cls-1" d="M116.36,109.16v168.82c0,.84-.68,1.53-1.53,1.53h-25.13c-.84,0-1.53-.68-1.53-1.53v-33.32c-.54-.03-.92-.06-1.31-.06-10.56,0-21.12,0-31.67-.02-.86,0-1.25,.29-1.59,1.05-4.45,9.86-8.93,19.7-13.4,29.56-.28,.63-.51,1.13-1.42,1.12-10.88-.04-21.76-.03-32.63-.03-.2,0-.39-.02-.77-.05,.16-.42,.27-.78,.42-1.11,24.76-55.27,49.52-110.53,74.25-165.81,.47-1.04,1.02-1.33,2.11-1.34,4.29-.04,8.58-.27,12.87-.31,6.6-.06,13.2-.02,19.8-.02h0c.84,0,1.53,.68,1.53,1.53h0Zm-28.33,65.07c-.53-4.56,1.1-7.59-1.59-4.73-5.69,13.07-12.95,30.21-18.65,43.32-.44,1.01,.3,2.14,1.4,2.14h17.32c.84,0,1.53-.68,1.53-1.53v-39.2h-.01Z"/>
  <g>
    <path class="cls-1" d="M296.52,279.24h-25.68c-.96-.43-1.26-1.15-1.26-2.2,.02-55.88,.02-111.77,0-167.65,0-.96,.22-1.7,1.02-2.23h24c.37,.07,.75,.18,1.12,.19,2.6,.08,5.19,.18,7.79,.19,1.35,0,2.08,.61,2.62,1.82,19.59,43.87,39.21,87.74,58.82,131.6,.11,.24,.17,.5,.29,.87h-15.94c.32,.38,.51,.63,.72,.85,7.75,8.44,15.5,16.89,23.27,25.31,2.38,2.58,4.82,5.09,7.24,7.64v.24c-11,.01-21.99,.02-32.99,.05-.75,0-1.31-.1-1.82-.83-1.5-2.15-2.89-4.45-4.75-6.26-9.84-9.57-21.17-16.97-33.75-22.41-2.52-1.09-5.35-1.51-8.05-2.17-1.03-.25-1.43,.19-1.43,1.35,.05,10.44,.02,20.87,.05,31.31,0,1.07-.25,1.87-1.26,2.33h0Zm1.86-112.64c-.91,.65-1.06,1.06-1.02,2.43,.05,1.94,.09,3.88,.12,5.81,.07,4.51,.15,9.03,.2,13.54,.09,8.03,.16,16.06,.24,24.09,.02,1.61,.47,2.09,2.07,2.09h16.07c1.95,0,2.53-.89,1.77-2.67-6.23-14.56-12.46-29.12-18.69-43.68-.23-.54-.5-1.06-.75-1.61h-.01Z"/>
    <path class="cls-1" d="M270.6,107.16c-.8,.54-1.02,1.28-1.02,2.23,.02,55.88,.02,111.77,0,167.65,0,1.05,.3,1.77,1.26,2.2h-1.44V107.16c.4,0,.8,0,1.2,0Z"/>
  </g>
  <path class="cls-2" d="M167.7,234.22c-3.3,1.32-6.58,2.71-9.92,3.93-2.41,.88-4.86,1.68-7.37,2.24-2.88,.64-5.68-.08-7.95-3.23-1.41-1.97-2.11-4.23-1.97-6.55,.14-2.28,.39-4.55,.82-6.72,1.73-8.74,3.55-17.45,5.35-26.16,1.93-9.32,3.89-18.63,5.81-27.96,1.24-6.03,2.43-12.08,3.67-18.11,.99-4.8,2.04-9.57,3.03-14.37,1.27-6.14,2.49-12.3,3.75-18.44,1.22-5.92,2.48-11.81,3.71-17.72,1-4.8,1.98-9.61,2.97-14.42,.79-3.86,1.55-7.72,2.35-11.58,1.25-6.09,2.51-12.17,3.78-18.25,1.08-5.19,2.17-10.38,3.24-15.57,.99-4.8,1.96-9.61,2.94-14.42,1.05-5.08,2.1-10.16,3.16-15.24,.48-2.28,1.02-4.54,1.49-6.83,.36-1.77,1.3-3.01,2.45-3.99,2.34-1.99,5.93-.2,7.09,3.41,.8,2.5,.75,4.92,.59,7.33-.54,8.32-1.1,16.63-1.66,24.95-.42,6.27-.86,12.53-1.28,18.8-.42,6.33-.83,12.66-1.26,18.99-.43,6.38-.87,12.76-1.29,19.15-.6,9.26-1.17,18.53-1.77,27.79-.37,5.68-.79,11.35-1.17,17.03-.49,7.38-.96,14.77-1.45,22.15-.42,6.33-.88,12.64-1.31,18.97-.05,.76-.09,1.53-.07,2.31,.03,1.17,.55,1.74,1.51,1.58,.73-.12,1.43-.4,2.11-.67,8.03-3.2,16.06-6.41,24.09-9.61,2.02-.81,4.04-1.59,6.25-1.83,1.57-.17,3.13-.04,4.69,.81,2.8,1.53,3.95,4.34,4.51,7.48,.47,2.66-.13,5.08-.61,7.47-1.31,6.49-2.71,12.93-4.04,19.41-1.22,5.92-2.38,11.86-3.59,17.78-.76,3.74-1.58,7.46-2.35,11.2-1.28,6.2-2.54,12.4-3.81,18.6-1.19,5.75-2.4,11.5-3.58,17.25-1.08,5.25-2.13,10.51-3.21,15.76-.94,4.58-1.92,9.14-2.86,13.72-1.27,6.14-2.53,12.29-3.8,18.44-1.49,7.2-2.99,14.39-4.48,21.6-1.51,7.32-3,14.64-4.5,21.96-1.33,6.48-2.64,12.96-3.98,19.43-1.7,8.2-3.41,16.4-5.14,24.58-.41,1.94-1.24,3.53-2.75,4.5-3.23,2.09-6.81-.99-7.32-5.02-.25-1.91-.26-3.85-.17-5.72,.28-5.29,.66-10.55,1.01-15.82,.54-8.03,1.1-16.05,1.63-24.08,.32-4.8,.57-9.62,.9-14.42,.43-6.38,.91-12.76,1.34-19.14,.36-5.27,.68-10.56,1.03-15.84,.51-7.67,1.04-15.34,1.54-23.01,.53-8.03,1.03-16.07,1.56-24.1,.61-9.14,1.23-18.27,1.85-27.41,.11-1.64,.23-3.28,.33-4.92,.02-.35,.03-.71,0-1.07-.08-1.7-.66-2.27-1.99-1.91-.62,.17-1.22,.42-1.81,.65-4.04,1.61-8.08,3.22-12.11,4.84l.02,.02Z"/>
  <path class="cls-1" d="M175.96,243.34c-3.3,1.32-6.58,2.71-9.92,3.93-2.41,.88-4.86,1.68-7.37,2.24-2.88,.64-5.68-.08-7.95-3.23-1.41-1.97-2.11-4.23-1.97-6.55,.14-2.28,.39-4.55,.82-6.72,1.73-8.74,3.55-17.45,5.35-26.16,1.93-9.32,3.89-18.63,5.81-27.96,1.24-6.03,2.43-12.08,3.67-18.11,.99-4.8,2.04-9.57,3.03-14.37,1.27-6.14,2.49-12.3,3.75-18.44,1.22-5.92,2.48-11.81,3.71-17.72,1-4.8,1.98-9.61,2.97-14.42,.79-3.86,1.55-7.72,2.35-11.58,1.25-6.09,2.51-12.17,3.78-18.25,1.08-5.19,2.17-10.38,3.24-15.57,.99-4.8,1.96-9.61,2.94-14.42,1.05-5.08,2.1-10.16,3.16-15.24,.48-2.28,1.02-4.54,1.49-6.83,.36-1.77,1.3-3.01,2.45-3.99,2.34-1.99,5.93-.2,7.09,3.41,.8,2.5,.75,4.92,.59,7.33-.54,8.32-1.1,16.63-1.66,24.95-.42,6.27-.86,12.53-1.28,18.8-.42,6.33-.83,12.66-1.26,18.99-.43,6.38-.87,12.76-1.29,19.15-.6,9.26-1.17,18.53-1.77,27.79-.37,5.68-.79,11.35-1.17,17.03-.49,7.38-.96,14.77-1.45,22.15-.42,6.33-.88,12.64-1.31,18.97-.05,.76-.09,1.53-.07,2.31,.03,1.17,.55,1.74,1.51,1.58,.73-.12,1.43-.4,2.11-.67,8.03-3.2,16.06-6.41,24.09-9.61,2.02-.81,4.04-1.59,6.25-1.83,1.57-.17,3.13-.04,4.69,.81,2.8,1.53,3.95,4.34,4.51,7.48,.47,2.66-.13,5.08-.61,7.47-1.31,6.49-2.71,12.93-4.04,19.41-1.22,5.92-2.38,11.86-3.59,17.78-.76,3.74-1.58,7.46-2.35,11.2-1.28,6.2-2.54,12.4-3.81,18.6-1.19,5.75-2.4,11.5-3.58,17.25-1.08,5.25-2.13,10.51-3.21,15.76-.94,4.58-1.92,9.14-2.86,13.72-1.27,6.14-2.53,12.29-3.8,18.44-1.49,7.2-2.99,14.39-4.48,21.6-1.51,7.32-3,14.64-4.5,21.96-1.33,6.48-2.64,12.96-3.98,19.43-1.7,8.2-3.41,16.4-5.14,24.58-.41,1.94-1.24,3.53-2.75,4.5-3.23,2.09-6.81-.99-7.32-5.02-.25-1.91-.26-3.85-.17-5.72,.28-5.29,.66-10.55,1.01-15.82,.54-8.03,1.1-16.05,1.63-24.08,.32-4.8,.57-9.62,.9-14.42,.43-6.38,.91-12.76,1.34-19.14,.36-5.27,.68-10.56,1.03-15.84,.51-7.67,1.04-15.34,1.54-23.01,.53-8.03,1.03-16.07,1.56-24.1,.61-9.14,1.23-18.27,1.85-27.41,.11-1.64,.23-3.28,.33-4.92,.02-.35,.03-.71,0-1.07-.08-1.7-.66-2.27-1.99-1.91-.62,.17-1.22,.42-1.81,.65-4.04,1.61-8.08,3.22-12.11,4.84l.02,.02Z"/>
</svg>